<?xml version="1.0" standalone="no"?>
<!DOCTYPE svg PUBLIC "-//W3C//DTD SVG 20010904//EN"
 "http://www.w3.org/TR/2001/REC-SVG-20010904/DTD/svg10.dtd">
<svg version="1.0" xmlns="http://www.w3.org/2000/svg"
 width="1280.000000pt" height="1241.000000pt" viewBox="0 0 1280.000000 1241.000000"
 preserveAspectRatio="xMidYMid meet">
<metadata>
Created by potrace 1.15, written by Peter Selinger 2001-2017
</metadata>
<g transform="translate(0.000000,1241.000000) scale(0.100000,-0.100000)"
fill="#000000" stroke="none">
<path d="M6233 12350 c-226 -114 -272 -441 -87 -626 24 -25 44 -47 44 -51 0
-3 -31 -2 -70 1 l-70 7 0 -80 0 -81 33 0 c44 0 107 -11 107 -19 0 -3 -29 -42
-65 -86 -81 -99 -95 -141 -95 -287 0 -59 -1 -108 -3 -108 -1 0 -39 15 -84 34
-166 70 -361 127 -578 168 -169 32 -441 32 -565 1 -178 -45 -389 -132 -720
-298 -207 -104 -398 -185 -485 -207 -148 -38 -290 -9 -503 100 -222 115 -242
123 -296 129 -72 7 -116 -9 -182 -69 -53 -49 -55 -50 -69 -31 -20 28 -76 53
-120 53 -53 0 -100 -26 -135 -74 -118 -160 -50 -431 117 -462 42 -8 100 16
140 58 44 47 78 61 108 46 27 -15 101 -98 136 -155 21 -34 24 -50 24 -150 0
-63 -4 -116 -10 -120 -5 -5 -44 -7 -87 -5 l-76 4 -27 61 c-30 71 -37 77 -86
77 -64 0 -102 -74 -80 -157 11 -41 82 -117 139 -149 31 -17 33 -22 28 -54 -3
-19 -6 -52 -6 -72 0 -33 -3 -38 -22 -38 -13 0 -29 -4 -36 -9 -9 -5 -38 -164
-87 -472 -41 -255 -77 -474 -80 -486 -6 -26 -40 -49 -50 -33 -8 13 -52 13 -60
0 -11 -17 -45 -11 -45 8 0 55 -64 56 -121 2 -37 -35 -41 -43 -36 -75 3 -19 20
-55 38 -80 25 -35 39 -45 61 -45 15 0 28 -2 28 -3 0 -2 -81 -213 -181 -468
-99 -255 -274 -705 -389 -999 -114 -294 -292 -750 -394 -1012 -268 -690 -525
-1350 -786 -2018 -125 -322 -278 -714 -339 -872 l-112 -288 48 -62 c418 -544
976 -930 1618 -1118 929 -271 2062 -165 2895 271 408 214 738 520 925 855 l29
51 -61 149 c-34 82 -148 363 -253 624 -192 474 -401 992 -759 1878 -104 257
-274 679 -379 937 -104 259 -281 695 -392 970 -111 275 -256 632 -321 794 -66
162 -119 298 -119 303 0 4 13 8 28 8 22 0 36 10 61 45 18 25 35 61 38 80 5 32
1 40 -36 75 -57 54 -121 53 -121 -2 0 -25 -41 -24 -63 2 -21 24 -31 25 -53 3
-15 -16 -17 -16 -29 0 -6 9 -24 96 -40 194 -102 649 -124 776 -137 785 -7 4
-21 6 -31 4 -19 -5 -22 6 -31 96 l-6 56 36 12 c20 7 53 28 74 46 70 63 76 156
25 369 -45 191 -45 261 -2 290 22 14 31 12 113 -15 193 -66 503 -120 689 -120
156 0 289 27 690 141 266 76 414 106 589 120 290 24 571 -28 889 -163 l117
-50 0 -64 c0 -34 -4 -66 -10 -69 -5 -3 -10 -44 -10 -90 l0 -83 74 -7 73 -7
-16 -32 c-24 -47 -23 -317 2 -365 9 -19 17 -35 17 -36 0 -1 -34 0 -75 3 l-75
5 0 -87 c0 -51 4 -86 10 -86 7 0 10 -1271 10 -3794 0 -2519 -3 -3797 -10
-3801 -5 -3 -10 -44 -10 -91 0 -83 0 -84 25 -84 14 0 25 -3 25 -6 0 -4 -44
-54 -97 -113 -54 -58 -98 -107 -98 -108 -1 -1 -95 -9 -211 -18 -503 -37 -858
-96 -1109 -182 -116 -40 -175 -72 -227 -121 -37 -35 -38 -38 -38 -107 l0 -70
-93 -43 c-118 -54 -198 -116 -226 -174 -19 -40 -21 -61 -21 -212 0 -152 2
-172 21 -205 180 -317 1775 -520 3219 -410 852 64 1478 231 1576 420 21 41 20
319 -2 382 -20 60 -96 130 -192 177 l-71 35 -1 50 c-2 119 -29 161 -139 219
-229 119 -694 206 -1326 246 -93 6 -173 12 -176 13 -3 1 -50 52 -104 112 l-98
110 32 3 31 3 0 90 c0 53 -4 89 -10 89 -7 0 -10 1272 -10 3795 0 2618 3 3795
10 3795 7 0 10 32 8 88 l-3 87 -55 -3 c-30 -2 -63 -6 -73 -9 -18 -5 -18 -4 -1
29 15 28 17 58 16 195 0 93 -5 171 -11 182 -6 11 -11 22 -11 24 0 3 32 8 70
12 l70 7 0 89 c0 53 -4 89 -10 89 -6 0 -10 28 -10 64 l0 64 118 50 c317 135
598 187 888 163 175 -14 323 -44 589 -120 401 -114 534 -141 690 -141 186 0
496 54 689 119 97 33 119 31 136 -15 16 -41 11 -91 -20 -234 -54 -241 -53
-315 6 -380 20 -21 55 -46 79 -56 39 -14 44 -19 40 -43 -2 -14 -7 -47 -10 -73
-5 -41 -9 -47 -32 -50 -14 -2 -30 -10 -34 -18 -5 -8 -42 -229 -83 -490 -61
-383 -78 -477 -92 -487 -12 -9 -21 -10 -28 -3 -13 13 -49 13 -63 -1 -18 -18
-47 -6 -53 21 -10 41 -56 39 -108 -5 -54 -47 -56 -82 -9 -151 24 -37 40 -50
63 -54 l32 -5 -110 -280 c-60 -154 -210 -541 -335 -860 -124 -319 -297 -762
-383 -985 -87 -223 -257 -659 -378 -970 -121 -311 -324 -833 -452 -1160 -489
-1257 -540 -1388 -540 -1399 0 -15 140 -187 246 -302 297 -322 653 -575 1049
-746 1119 -484 2675 -330 3612 358 240 177 442 399 571 629 l31 55 -163 405
c-167 413 -433 1072 -776 1920 -106 261 -269 664 -362 895 -93 231 -274 677
-400 990 -127 314 -311 768 -408 1010 l-178 440 31 3 c34 4 57 27 88 90 18 36
19 47 9 72 -16 39 -80 82 -117 78 -22 -2 -29 -9 -31 -30 -4 -34 -40 -38 -67
-8 -21 24 -43 26 -51 5 -8 -20 -30 -19 -38 2 -4 9 -41 231 -82 492 -43 270
-81 479 -87 483 -7 4 -21 8 -33 8 -18 0 -22 8 -28 53 -10 90 -9 95 32 116 51
27 120 100 132 141 13 45 2 110 -23 138 -21 22 -78 30 -103 14 -7 -4 -25 -36
-40 -70 l-29 -64 -80 -1 -79 0 -9 34 c-5 19 -7 74 -4 123 5 74 10 95 33 130
45 68 97 127 127 142 33 18 50 10 120 -52 55 -49 98 -62 152 -44 86 28 144
120 153 241 11 157 -77 289 -193 289 -44 0 -100 -25 -120 -53 -15 -21 -15 -21
-57 20 -68 65 -118 87 -188 80 -60 -5 -73 -11 -305 -130 -207 -106 -349 -136
-490 -103 -92 22 -183 61 -525 226 -419 203 -575 263 -756 295 -263 46 -671
-20 -1040 -167 -60 -24 -112 -44 -115 -46 -4 -2 -9 55 -11 125 -4 151 -14 179
-110 288 l-62 70 77 9 77 9 0 79 0 79 -77 -7 -78 -7 52 50 c155 151 163 392
20 558 -55 64 -127 98 -217 103 -68 3 -80 1 -137 -28z m-3401 -3540 c53 -15
95 -54 128 -120 32 -63 93 -122 155 -151 l40 -18 177 -438 c98 -241 284 -701
414 -1023 129 -322 347 -862 484 -1200 136 -338 366 -907 510 -1265 144 -357
358 -886 475 -1175 117 -289 211 -526 210 -528 -2 -2 -72 12 -157 32 -969 224
-2164 317 -3278 256 -810 -45 -1563 -146 -1862 -249 -32 -11 -58 -18 -58 -16
0 2 54 140 119 307 65 167 164 418 219 558 230 585 314 801 512 1305 114 292
253 646 309 788 158 402 292 745 400 1020 54 138 145 369 201 512 56 143 147
375 202 515 259 661 235 607 267 613 48 10 133 86 167 151 38 72 70 103 120
121 46 17 193 19 246 5z m7290 0 c52 -15 90 -50 120 -112 31 -62 101 -131 160
-158 l41 -18 142 -354 c78 -194 265 -657 415 -1028 149 -371 375 -929 500
-1240 125 -311 323 -799 438 -1085 671 -1662 773 -1917 769 -1922 -3 -2 -40 5
-83 16 -131 33 -516 108 -724 140 -702 109 -1184 146 -1900 145 -821 -1 -1557
-58 -2188 -170 -154 -27 -398 -86 -432 -104 -12 -6 -20 -7 -20 -1 0 5 38 105
84 223 46 117 130 329 185 471 56 141 146 372 201 512 55 140 145 369 199 508
152 388 289 736 401 1022 56 143 147 375 202 515 213 543 728 1855 841 2143
l81 208 51 23 c63 29 127 91 153 148 25 56 71 100 119 115 48 15 196 16 245 3z"/>
</g>
</svg>
